<?xml version="1.0" standalone="no"?>
<!DOCTYPE svg PUBLIC "-//W3C//DTD SVG 20010904//EN"
 "http://www.w3.org/TR/2001/REC-SVG-20010904/DTD/svg10.dtd">
<svg version="1.0" xmlns="http://www.w3.org/2000/svg"
 width="512.000000pt" height="512.000000pt" viewBox="0 0 512.000000 512.000000"
 preserveAspectRatio="xMidYMid meet">

<g transform="translate(0.000000,512.000000) scale(0.100000,-0.100000)"
fill="#000000" stroke="none">
<path d="M2255 5100 c-752 -134 -1333 -724 -1461 -1485 -26 -152 -24 -445 4
-595 30 -163 91 -346 164 -491 40 -78 333 -543 797 -1264 404 -627 751 -1166
771 -1198 l37 -58 773 1202 c425 661 794 1243 820 1293 138 263 200 523 200
831 0 482 -177 913 -518 1258 -271 275 -609 450 -992 513 -126 20 -467 17
-595 -6z m506 -284 c284 -38 524 -142 751 -325 199 -160 369 -399 461 -646 97
-260 116 -574 52 -855 -56 -242 -80 -285 -794 -1396 -354 -549 -648 -1005
-655 -1012 -10 -10 -141 188 -652 980 -359 558 -663 1041 -694 1103 -64 128
-100 230 -131 375 -33 150 -33 428 0 580 64 302 202 559 412 769 331 331 791
488 1250 427z"/>
<path d="M2450 4224 c-218 -40 -377 -120 -516 -258 -118 -119 -197 -259 -240
-426 -28 -112 -26 -327 4 -435 91 -321 334 -560 651 -642 170 -43 380 -31 540
32 237 93 424 279 516 516 63 160 75 371 32 540 -67 260 -241 472 -482 589
-124 60 -210 81 -355 85 -69 2 -136 2 -150 -1z m311 -326 c88 -33 146 -67 212
-128 74 -68 125 -146 160 -249 49 -142 38 -320 -28 -450 -58 -116 -160 -217
-276 -276 -129 -66 -308 -77 -450 -28 -239 82 -392 283 -406 533 -16 292 170
543 456 615 85 22 249 13 332 -17z"/>
</g>
</svg>
